<svg xmlns="http://www.w3.org/2000/svg" viewBox="0 0 1920 556.39"><defs><style>.cls-1{fill:#524dd0;}.cls-2{fill:#101737;}</style></defs><g id="Layer_2" data-name="Layer 2"><path class="cls-1" d="M0,0V556.39q8.87-.23,17.73-.43c17.43-.38,34.83-1.49,52.14-3.53q25.48-3,50.6-8.3A543.5,543.5,0,0,0,258.2,495.06a550.88,550.88,0,0,0,183-152,81.77,81.77,0,0,0,5.82-8.77c4.06-6.88,7.87-13.9,12-20.76,33.86-56.76,74.45-113.15,122.91-158.22,44.07-41,92.9-75.1,147.14-101.36A544.18,544.18,0,0,1,843.59,13.5q23.35-5.41,47.13-8.6c9.51-1.26,19-2.3,28.61-3C931.54.93,940.84.66,947.59.48,961.08.12,971.06.27,973.37.31c10.9.18,19.18.62,21.58.79,14,1,28,2.34,42,4.34a531.52,531.52,0,0,1,63.81,13.2,552,552,0,0,1,145,63.14c57.6,35.42,107.64,79.57,151.22,131.13a719.88,719.88,0,0,1,82.09,120.2,52.59,52.59,0,0,0,4.38,6.84,537.46,537.46,0,0,0,54.91,61.49q99.18,95,231.16,133.27a545.81,545.81,0,0,0,96.9,18.45c13.37,1.34,26.78,2.2,40.22,2.42,4.46.07,8.92.4,13.38.6V0Z"/><path class="cls-2" d="M970,119"/></g></svg>