<svg id="auto1" xmlns="http://www.w3.org/2000/svg" viewBox="0 0 157.03 83.03"><defs><style>.cls-1{fill:#aeaeae;}.cls-2{fill:#fefefe;}.cls-3{fill:none;stroke:#303030;stroke-linecap:round;stroke-linejoin:round;}</style></defs><path class="cls-1" d="M1032.19,1272.65a47.56,47.56,0,0,1,13.41-.57c4.31.44,18.33,1.55,18.33,1.55a40.25,40.25,0,0,1,15.15-2.17s16.48.87,27.49,13.54c1.79,2.07,4.22,5.3,4.5,9.48.14,2.19-.65,2-.83,5.08-.31,5.19,1.55,7.54.12,10.67a7.38,7.38,0,0,1-2,2.59c-2.08,1.73-7.32,5.85-9.4,7.58l-19.34,5.1c-10.17,3.17-20.3,6.46-30.51,9.47-11.29,3.32-22.66,6.37-34,9.53l-1,.27a26.57,26.57,0,0,0-3.14,1.14l-17.36,4.91a21.8,21.8,0,0,1-12.57-1.27,18.12,18.12,0,0,1-6.42-4.52c-5.21-5.45-10.67-10.66-16-16-4.09-4.15-4.66-11.18-1.52-16.49,3.58-6,6.49-16.33,11.94-21.36,0,0,26.38-8.54,39.08-12.11,7.62-2.15,16.44-4.38,24.11-6.38" transform="translate(-954.55 -1270.91)"/><path class="cls-2" d="M1010.89,1345.91a11.18,11.18,0,0,1-4.21,5.55c-3.21,2.13-8.67,3.11-11.75,0s-1.52-8.64-1.34-9.19a10.82,10.82,0,0,1,7.69-7c1-.24,6.15-1.47,9,2.07a8.06,8.06,0,0,1,.61,8.56" transform="translate(-954.55 -1270.91)"/><path class="cls-2" d="M1097.89,1312.2c2.81,3.84.91,9.54-1.92,12.64-.5.56-4.17,4.46-9.32,3.64-.61-.1-4.72-.82-6.57-4.4-2.38-4.62,1.23-9.6,1.72-10.28s3.43-4.73,8.51-4.85C1091,1308.94,1095.47,1308.91,1097.89,1312.2Z" transform="translate(-954.55 -1270.91)"/><path class="cls-2" d="M1109.63,1289.42c-4,3.31-7.69,6.86-16.34,10.34l.09.24a16.81,16.81,0,0,0,16.51,1l.52-2.93a8.36,8.36,0,0,0-.08-7Z" transform="translate(-954.55 -1270.91)"/><path class="cls-2" d="M958.84,1309.11c3.33,2.83,9,8.42,12.19,11.43s6.09,3.09,9.59.53a84.45,84.45,0,0,1,9.44-5.44,67.87,67.87,0,0,1-20.79-24.49s-3.44,2.61-6.7,9.8Z" transform="translate(-954.55 -1270.91)"/><path class="cls-2" d="M1047.07,1295c-12.5,3.67-24.95,7.52-37.52,10.93-7,1.89-12,6.39-17,11,3.75,5,9.34,2.7,14,3.44,4.36.69,12-.06,16.48-.22,2.54-.71,5.76-1.62,9.5-2.69.29-.08,6.66-1.91,13.49-3.91q15.35-4.51,30.27-9.13a5.29,5.29,0,0,0,1.74-1.55,5.43,5.43,0,0,0,1-2.82c3.77-3.17,3.33-7.41.84-10.37-4.44-5.29-9.84-9.79-14.84-14.63l-.46-.39-1.26-.12c-9.19-.89-13.44-2-17.75-2.41a43,43,0,0,0-5.29-.33,39.81,39.81,0,0,0-8.12.9c6.06,4.25,13,14.63,14.88,22.35" transform="translate(-954.55 -1270.91)"/><path class="cls-3" d="M1079.57,1325.5c-10.17,3.17-20.3,6.46-30.51,9.47-11.29,3.32-22.66,6.37-34,9.53l-1,.27a26.57,26.57,0,0,0-3.14,1.14,11.18,11.18,0,0,1-4.21,5.55c-3.21,2.13-8.67,3.11-11.75,0s-1.52-8.64-1.34-9.19a10.82,10.82,0,0,1,7.69-7c1-.24,6.15-1.47,9,2.07a8.06,8.06,0,0,1,.61,8.56" transform="translate(-954.55 -1270.91)"/><path class="cls-3" d="M1098.91,1320.4c2.08-1.73,7.32-5.85,9.4-7.58a7.38,7.38,0,0,0,2-2.59c1.43-3.13-.43-5.48-.12-10.67.18-3.08,1-2.89.83-5.08-.28-4.18-2.71-7.41-4.5-9.48-11-12.67-27.49-13.54-27.49-13.54a40.25,40.25,0,0,0-15.15,2.17" transform="translate(-954.55 -1270.91)"/><path class="cls-3" d="M969,1291.14c-5.45,5-8.36,15.32-11.94,21.36-3.14,5.31-2.57,12.34,1.52,16.49,5.29,5.38,10.75,10.59,16,16a18.12,18.12,0,0,0,6.42,4.52,21.8,21.8,0,0,0,12.57,1.27" transform="translate(-954.55 -1270.91)"/><path class="cls-3" d="M1032.19,1272.65c-7.67,2-16.49,4.23-24.11,6.38-12.7,3.57-26.14,8.44-38.81,12.11" transform="translate(-954.55 -1270.91)"/><path class="cls-3" d="M1023.08,1320.1q11.42-3.21,23-6.6,15.35-4.51,30.27-9.13a6.79,6.79,0,0,0,2.94-3.87" transform="translate(-954.55 -1270.91)"/><path class="cls-3" d="M1079.07,1309c-14.83,4.34-29.68,8.63-44.49,13-5.21,1.54-10.34,3.32-15.51,5" transform="translate(-954.55 -1270.91)"/><path class="cls-3" d="M1047.07,1295c-12.5,3.67-24.95,7.52-37.52,10.93-7,1.89-12,6.39-17,11,3.75,5,9.34,2.7,14,3.44,4.36.69,12-.06,16.48-.22" transform="translate(-954.55 -1270.91)"/><path class="cls-3" d="M1097.89,1312.2c2.81,3.84.91,9.54-1.92,12.64-.5.56-4.17,4.46-9.32,3.64-.61-.1-4.72-.82-6.57-4.4-2.38-4.62,1.23-9.6,1.72-10.28s3.43-4.73,8.51-4.85C1091,1308.94,1095.47,1308.91,1097.89,1312.2Z" transform="translate(-954.55 -1270.91)"/><path class="cls-3" d="M1065.07,1275c5,4.84,10.4,9.34,14.84,14.63,2.49,3,2.93,7.2-.84,10.37" transform="translate(-954.55 -1270.91)"/><path class="cls-3" d="M959.21,1309.42c3.33,2.83,8.66,8.11,11.82,11.12s6.09,3.09,9.59.53a84.45,84.45,0,0,1,9.44-5.44,67.87,67.87,0,0,1-20.79-24.49s-3.44,2.61-6.7,9.8" transform="translate(-954.55 -1270.91)"/><path class="cls-3" d="M1010.07,1306.5c-1.17,4.84-2.46,9.64-3.46,14.51-.68,3.3.6,6.08,2.94,8.52,3.59,3.74,8.51,9.33,12,13.17" transform="translate(-954.55 -1270.91)"/><path class="cls-3" d="M1064.61,1274.61l-1.26-.12c-9.19-.89-13.44-2-17.75-2.41a47.56,47.56,0,0,0-13.41.57" transform="translate(-954.55 -1270.91)"/><path class="cls-3" d="M1032.19,1272.65c6.06,4.25,13,14.63,14.88,22.35" transform="translate(-954.55 -1270.91)"/><path class="cls-3" d="M1079.07,1300c-6-1-26.52-4.59-32.52-5.59" transform="translate(-954.55 -1270.91)"/><path class="cls-3" d="M1109.63,1289.42c-8,8.21-18.27,11-27.56,14.58" transform="translate(-954.55 -1270.91)"/><path class="cls-3" d="M1093.38,1300a16.81,16.81,0,0,0,16.51,1" transform="translate(-954.55 -1270.91)"/><path class="cls-3" d="M1040.07,1321c.17,4.67.42,11.72.59,16.39" transform="translate(-954.55 -1270.91)"/><path class="cls-3" d="M961.07,1318l13.5,11.5" transform="translate(-954.55 -1270.91)"/><path class="cls-3" d="M1033.09,1299.15c1.57,3.14,5.62,12,6.54,15.67" transform="translate(-954.55 -1270.91)"/></svg>