<svg id="voorgrond" xmlns="http://www.w3.org/2000/svg" viewBox="0 0 1801.25 549.25"><defs><style>.cls-1,.cls-6{fill:none;}.cls-1,.cls-2,.cls-3{stroke:#303030;stroke-linecap:round;stroke-linejoin:round;}.cls-2{fill:#93d182;}.cls-3{fill:#cbe5c3;}.cls-4,.cls-5{fill:#fefefe;}.cls-5,.cls-6{stroke:#878989;stroke-miterlimit:10;}</style></defs><path class="cls-1" d="M1618.64,1028.92c3.93,7.2,13.59,23.21,17.72,30.33L1617,1082.54c-12.17,5.13-31.29,11-43.45,16.16" transform="translate(-499.23 -765.62)"/><path class="cls-1" d="M1634.49,1057.93c-10.5-3-21-6-31.51-9-7.47-2.09-19.1-5.67-26.6-7.67l39.37,41.77" transform="translate(-499.23 -765.62)"/><path class="cls-1" d="M1576.38,1040.16s-1.15,1.23-2.89,2.91c-13.81,13.36-31,29.58-44.79,42.92" transform="translate(-499.23 -765.62)"/><path class="cls-1" d="M1575.77,1040.79c-7,1.33-36.88,8.21-43.86,9.67-5,1-10.84,2-16.49,3.36q6.64,16.08,13.28,32.17" transform="translate(-499.23 -765.62)"/><path class="cls-1" d="M1515.42,1053.82c5.17-7.34,11.6-15.54,16.79-22.85,1.45-2,3.35-5,4.81-6.9,6,2.61,13.17,6.62,19.51,9.18q9.77,4,19.24,7.54.32-13.59.61-27.19" transform="translate(-499.23 -765.62)"/><path class="cls-1" d="M1575.77,1040.79c-.16,5.17-1.19,24.45-1.28,29.62-.09,4.83-1,23-1,27.87" transform="translate(-499.23 -765.62)"/><path class="cls-1" d="M1576,1040.52l42.6-11.6-42.26-15.32c-5.72,1-11.35,2.58-17,3.92l-22.34,6.55" transform="translate(-499.23 -765.62)"/><path class="cls-1" d="M1573.49,1098.7c-6.84-1.83-38-10.88-44.79-12.71" transform="translate(-499.23 -765.62)"/><path class="cls-1" d="M1524.19,1074.38" transform="translate(-499.23 -765.62)"/><path class="cls-2" d="M1911.64,880.66l-.14.12c-4.53,4.84-7.8,5.49-10,5.21-5.6-.76-9.75-3.64-13.4-10.8-2.68-5.25-12.26-.79-12.26-.79s-12.51,7.41-12.51,21.2,2.81,27.44-1.53,29.87-14.68,3.32-15.32,6.64-2.81,14.29,2.56,22.08,17.36,19.53,17.1,20.81-3.45,6-3.06,7.79,11.61,20.68,26.17,29.74c0,0,2.93,2.43,5.87,1.28s6.89-3.07,8.3-2.68,12.51,7.78,13.91,9.7,3.83,3.83,6.39,3.06,11.74-9.57,13.14-14.29,14-1.92,14-1.92,7.27,2.81,11.74,2.3,13.49-7.19,13.49-7.19,5.36-5.62,11.75-5.19a17.07,17.07,0,0,0,10.72-2.9l10-12.68s1.7-4.17,0-6c-1.21-1.33-3.73-2.91-4.86-6-.54-1.44-.65-6.14-.5-4.6-.22-19.18-3-24.83-3-24.83a21.8,21.8,0,0,0-5.29-7.22c-2.18-1.89-3.64-2.31-11.3-5.74-7.85-3.52-9.17-4.41-10.23-6.16-1-1.56-1-3.63-1.13-7.76-.18-5.83.93-8.31-.68-12.08a13.42,13.42,0,0,0-2-3.19c-5.46-6.85-12.91-3.75-17.15-9.11-2.86-3.62-.26-6.05-4.26-13.36-1.93-3.55-2.92-5.35-4.89-5.92-5-1.44-7.86,7.6-16.19,8-3.88.2-6-1.63-10.49-.22A14.59,14.59,0,0,0,1911.64,880.66Z" transform="translate(-499.23 -765.62)"/><path class="cls-2" d="M1911.64,880.66l-.14.12c-4.53,4.84-7.8,5.49-10,5.21-5.6-.76-9.75-3.64-13.4-10.8-2.68-5.25-12.26-.79-12.26-.79s-12.51,7.41-12.51,21.2,2.81,27.44-1.53,29.87-14.68,3.32-15.32,6.64-2.81,14.29,2.56,22.08,17.36,19.53,17.1,20.81-3.45,6-3.06,7.79,11.61,20.68,26.17,29.74c0,0,2.93,2.43,5.87,1.28s6.89-3.07,8.3-2.68,12.51,7.78,13.91,9.7,3.83,3.83,6.39,3.06,11.74-9.57,13.14-14.29,14-1.92,14-1.92,7.27,2.81,11.74,2.3,13.49-7.19,13.49-7.19,5.36-5.62,11.75-5.19a17.07,17.07,0,0,0,10.72-2.9l10-12.68s1.7-4.17,0-6c-1.21-1.33-3.73-2.91-4.86-6-.54-1.44-.65-6.14-.5-4.6-.22-19.18-3-24.83-3-24.83a21.8,21.8,0,0,0-5.29-7.22c-2.18-1.89-3.64-2.31-11.3-5.74-7.85-3.52-9.17-4.41-10.23-6.16-1-1.56-1-3.63-1.13-7.76-.18-5.83.93-8.31-.68-12.08a13.42,13.42,0,0,0-2-3.19c-5.46-6.85-12.91-3.75-17.15-9.11-2.86-3.62-.26-6.05-4.26-13.36-1.93-3.55-2.92-5.35-4.89-5.92-5-1.44-7.86,7.6-16.19,8-3.88.2-6-1.63-10.49-.22A14.59,14.59,0,0,0,1911.64,880.66Z" transform="translate(-499.23 -765.62)"/><path class="cls-2" d="M2019.6,967.38s9.83,5.66,11.31,6.73,5.88,1.66,9.71.63,14.59-6.76,18-6.72,8.47.81,11.32,2.55,11.54.76,11.54.76c1.1-.48,2.66-1.17,4.5-2.08a90.79,90.79,0,0,0,9.84-5.53c2.44-1.66,7.43-5.59,12.29-13.87,0,0,5.66-10.72,5.58-18.85s-2.13-15.7-4.94-19-14.08-18.26-14.08-18.26-1.75-1.57-1.66-5.36-.26-17-.26-17a18,18,0,0,0-2.76-10.47c-3-4.47-6.77-4.86-10-10.24-.43-.71-1.14-2-2.57-6.91a126.93,126.93,0,0,1-3.66-16.89,23.48,23.48,0,0,0-5.44-8.66c-3.21-3.19-4.37-2.33-6.77-5-3.2-3.53-2.19-6.21-5.81-15.25-.41-1-.23-.51-2.49-5.56-6.07-13.57-7.93-19.25-13.08-23.74-1.62-1.41-3.61-2.74-5.87-2.49a6.75,6.75,0,0,0-4.09,2.3c-4.64,4.91-3.69,17.7-3.47,21,1.24,18.66,1.89,28.79-2.17,37.32-6.37,13.37-8.82,17.46-8.82,17.46a20.43,20.43,0,0,0-1.28,2.51,21.54,21.54,0,0,0-1.69,8c-.19,5.37-.55,15.78-5.7,23.62-2.3,3.52-3.13,2.8-5.2,6.45a31.13,31.13,0,0,0-3.65,14.79c-.16,6.93,1.71,9.17-.21,13.83-1,2.48-1.7,2.2-3,5.1-.56,1.28-2.91,6.64-1.53,12.09s4.68,4.39,7.15,11a50.32,50.32,0,0,1,2.22,10h0s2.84,13.82,6.53,16.4a19.72,19.72,0,0,0,11.35,3.58" transform="translate(-499.23 -765.62)"/><path class="cls-3" d="M2196.32,934.28a116.08,116.08,0,0,0,7.87,11.32c2.18,2.76,3.95,4.73,6.81,5.44a10.28,10.28,0,0,0,4.51,0c4.47-.9,7-3.86,10.55-7.23,4.91-4.63,7.37-6.95,10-8.07,7.26-3.13,11.4,1.68,22.72-.44a43.79,43.79,0,0,0,8.62-2.75c7.21-2.79,16.61-6.43,23.81-14.93,2.64-3.12,7.79-9.2,8.68-18.32,1.37-14-8.32-24.27-8.81-24.77-6.15-6.32-10.41-4.74-13.08-10.53-3.19-6.91-.16-15.8.83-18.7,1.21-3.57,1.83-3.45,3.7-8.43,1.28-3.4,3.22-8.57,3.57-13.72.09-1.33.9-15.73-7.62-20.81-9.16-5.45-22.61,3.71-23.33,4.21-10.86,7.59-11.39,18.54-18.24,18.62-2.91,0-5.49-2-10.64-6s-5.21-5.67-8.38-7.92c-5.78-4.1-12.55-3.64-19.3-3.19s-17.46,1.18-22,8.38c-1.14,1.81-1.63,4.14-2.62,8.79-2.14,10.16-.06,12-2.36,14.68-3.51,4.17-10.1,1.52-13.91,7a13.29,13.29,0,0,0-1.28,2.43c-2.32,5.19-1.15,8.1-3.57,10.28a10.46,10.46,0,0,1-2.68,1.41,13.3,13.3,0,0,1-6.11,1.51c-2.51-.14-2.67-1.28-5.41-1.4a9.34,9.34,0,0,0-4.19.73c-1.15.54-2.94,1.78-4.64,6.11-1,2.64-5.21,13.27-.5,18.19,2.13,2.23,5.63,2.81,6.59,5.85a11.13,11.13,0,0,1,.43,2.62,10.18,10.18,0,0,1-.62,3.68c-1.83,5.18-6.28,17.77-4.06,26.1.15.57,1.93,6.93,7.49,10.13,9.61,5.55,20.06-4.4,27.48,1.32,3.87,3,2.59,6.87,7.88,10a16.24,16.24,0,0,0,10.17,2,16.66,16.66,0,0,0,10-5.24" transform="translate(-499.23 -765.62)"/><path class="cls-1" d="M2196.32,934.28a116.08,116.08,0,0,0,7.87,11.32c2.18,2.76,3.95,4.73,6.81,5.44a10.28,10.28,0,0,0,4.51,0c4.47-.9,7-3.86,10.55-7.23,4.91-4.63,7.37-6.95,10-8.07,7.26-3.13,11.4,1.68,22.72-.44a43.79,43.79,0,0,0,8.62-2.75c7.21-2.79,16.61-6.43,23.81-14.93,2.64-3.12,7.79-9.2,8.68-18.32,1.37-14-8.32-24.27-8.81-24.77-6.15-6.32-10.41-4.74-13.08-10.53-3.19-6.91-.16-15.8.83-18.7,1.21-3.57,1.83-3.45,3.7-8.43,1.28-3.4,3.22-8.57,3.57-13.72.09-1.33.9-15.73-7.62-20.81-9.16-5.45-22.61,3.71-23.33,4.21-10.86,7.59-11.39,18.54-18.24,18.62-2.91,0-5.49-2-10.64-6s-5.21-5.67-8.38-7.92c-5.78-4.1-12.55-3.64-19.3-3.19s-17.46,1.18-22,8.38c-1.14,1.81-1.63,4.14-2.62,8.79-2.14,10.16-.06,12-2.36,14.68-3.51,4.17-10.1,1.52-13.91,7a13.29,13.29,0,0,0-1.28,2.43c-2.32,5.19-1.15,8.1-3.57,10.28a10.46,10.46,0,0,1-2.68,1.41,13.3,13.3,0,0,1-6.11,1.51c-2.51-.14-2.67-1.28-5.41-1.4a9.34,9.34,0,0,0-4.19.73c-1.15.54-2.94,1.78-4.64,6.11-1,2.64-5.21,13.27-.5,18.19,2.13,2.23,5.63,2.81,6.59,5.85a11.13,11.13,0,0,1,.43,2.62,10.18,10.18,0,0,1-.62,3.68c-1.83,5.18-6.28,17.77-4.06,26.1.15.57,1.93,6.93,7.49,10.13,9.61,5.55,20.06-4.4,27.48,1.32,3.87,3,2.59,6.87,7.88,10a16.24,16.24,0,0,0,10.17,2,16.66,16.66,0,0,0,10-5.24" transform="translate(-499.23 -765.62)"/><path class="cls-4" d="M500.7,1228.91a4.58,4.58,0,0,0-.65,1.21c-.49,1.42-.34,3.18-.07,5.69.36,3.4.73,6.36,1.06,8.76a65.42,65.42,0,0,0,4.24,18.6,126.47,126.47,0,0,0,13,23.62,51.91,51.91,0,0,1,5.3,9.19c1.57,3.52,3.65,6.6,4.15,8.68l19.06-16Z" transform="translate(-499.23 -765.62)"/><path class="cls-5" d="M527.45,1304.85a80.86,80.86,0,0,0-3.92-10.06,51.52,51.52,0,0,0-5.3-9.19,126.47,126.47,0,0,1-13-23.62,65.42,65.42,0,0,1-4.24-18.6c-.33-2.4-.7-5.36-1.06-8.76s-.51-5.27.72-6.9a5.66,5.66,0,0,1,2.47-1.78c12.75-3.56,23.12-6.56,30.09-8.6,19.41-5.68,62.78-18.9,76.33-22.5,8.76-2.32,12.22-3.1,14.35-3.9a50.2,50.2,0,0,1,5.61-1.42,8.26,8.26,0,0,1,4.44-.14,5.55,5.55,0,0,1,1.75.87,8.57,8.57,0,0,1,1.89,2.15c.35.5.61.94.8,1.25C656,1223,668.67,1244.73,669.64,1247a57.87,57.87,0,0,1,2.32,6h0c.57,2.11.91,3.85.91,3.85l-1.53,18.72-133.77,38c0-11.11-.27-13.61-.27-13.61a36.46,36.46,0,0,0-3.41-12.09c-4.23-8.56-17.14-29.21-33.37-56.88" transform="translate(-499.23 -765.62)"/><path class="cls-6" d="M537.57,1313.55" transform="translate(-499.23 -765.62)"/><path class="cls-5" d="M537.63,1308.32" transform="translate(-499.23 -765.62)"/><path class="cls-6" d="M574.4,1302.11v-14.47a26.28,26.28,0,0,0-4.17-12.34c-4-6.13-36-57.59-36-57.59" transform="translate(-499.23 -765.62)"/><path class="cls-6" d="M606.63,1293.94V1277s.28-6-2.27-9.87S567.7,1208,567.7,1208" transform="translate(-499.23 -765.62)"/><path class="cls-6" d="M642.32,1283.3v-16.94s-.09-4.68-3.92-10.21-36.22-58.1-36.22-58.1" transform="translate(-499.23 -765.62)"/><path class="cls-5" d="M500.52,1231c16.23,27.67,29.14,48.32,33.37,56.88a36.46,36.46,0,0,1,3.41,12.09s.3,2.5.27,13.61" transform="translate(-499.23 -765.62)"/><line class="cls-6" x1="28.41" y1="549.24" x2="28.22" y2="539.23"/></svg>