<svg id="voorgrond" xmlns="http://www.w3.org/2000/svg" viewBox="0 0 174.15 187.99"><defs><style>.cls-1,.cls-2,.cls-4{fill:#fefefe;}.cls-1{stroke:#8a8a8a;}.cls-1,.cls-3,.cls-4{stroke-miterlimit:10;}.cls-3{fill:none;}.cls-3,.cls-4{stroke:#878989;}</style></defs><path class="cls-1" d="M664,1277.64,660.7,1341a2.38,2.38,0,0,0,.54,1.92,2,2,0,0,0,1.25.47c.41.06,4.38.57,5.09-1.11a1.3,1.3,0,0,0,.1-.43l3.66-66.3" transform="translate(-499.23 -1188.63)"/><path class="cls-2" d="M527.87,1308.32l10-.77-.28,67.73s-9.72.45-9.74-.06-.42-66.15-.42-66.15Z" transform="translate(-499.23 -1188.63)"/><path class="cls-3" d="M500.52,1231c16.23,27.67,29.14,48.32,33.37,56.88a36.46,36.46,0,0,1,3.41,12.09s.3,65.56.27,76.68" transform="translate(-499.23 -1188.63)"/><path class="cls-2" d="M500.7,1228.91a4.58,4.58,0,0,0-.65,1.21c-.49,1.42-.34,3.18-.07,5.69.36,3.4.73,6.36,1.06,8.76a65.42,65.42,0,0,0,4.24,18.6c2.79,7.14,8.76,16.42,13.73,23.55,1,1.47,2.46,4.63,4.52,9.26,3,3.49,4.78,16.77,4.11,18.88l25.65-5.77Z" transform="translate(-499.23 -1188.63)"/><path class="cls-4" d="M527.45,1304.85a80.86,80.86,0,0,0-3.92-10.06,51.52,51.52,0,0,0-5.3-9.19,126.47,126.47,0,0,1-13-23.62,65.42,65.42,0,0,1-4.24-18.6c-.33-2.4-.7-5.36-1.06-8.76s-.51-5.27.72-6.9a5.66,5.66,0,0,1,2.47-1.78c12.75-3.56,23.12-6.56,30.09-8.6,19.41-5.68,62.78-18.9,76.33-22.5,8.76-2.32,12.22-3.1,14.35-3.9a50.2,50.2,0,0,1,5.61-1.42,8.26,8.26,0,0,1,4.44-.14,5.55,5.55,0,0,1,1.75.87,8.57,8.57,0,0,1,1.89,2.15c.35.5.61.94.8,1.25C656,1223,668.67,1244.73,669.64,1247a57.87,57.87,0,0,1,2.32,6h0c.57,2.11.91,3.85.91,3.85l-1.53,18.72-133.77,38c0-11.11-.27-13.61-.27-13.61a36.46,36.46,0,0,0-3.41-12.09c-4.23-8.56-17.14-29.21-33.37-56.88" transform="translate(-499.23 -1188.63)"/><path class="cls-3" d="M537.57,1313.55" transform="translate(-499.23 -1188.63)"/><path class="cls-4" d="M537.63,1308.32" transform="translate(-499.23 -1188.63)"/><path class="cls-3" d="M574.4,1302.11v-14.47a26.28,26.28,0,0,0-4.17-12.34c-4-6.13-36-57.59-36-57.59" transform="translate(-499.23 -1188.63)"/><path class="cls-3" d="M606.63,1293.94V1277s.28-6-2.27-9.87S567.7,1208,567.7,1208" transform="translate(-499.23 -1188.63)"/><path class="cls-3" d="M642.32,1283.3v-16.94s-.09-4.68-3.92-10.21-36.22-58.1-36.22-58.1" transform="translate(-499.23 -1188.63)"/><line class="cls-3" x1="28.64" y1="186.64" x2="28.22" y2="116.22"/></svg>